# xmcd CD Database Entry
#
# Track frame offsets:
# 150
# 20482
# 37391
# 56350
# 71198
# 85484
# 101719
# 122741
# 138226
# 163502
# 185785
# 202854
# 222729
# 241643
# 257200
# 274402
# 291952
# 306552
# 326313
# 342386
#
# Disc length: 4780 seconds
#
# Revision: 5
# Processed by: cddbd v1.4b41PL2 Copyright (c) Steve Scherf et al.
# Submitted via: tcd 2.0b
#
DISCID=4312aa14
DTITLE=Tezkej Pokondr/ The best of
DYEAR=1900
DGENRE=
TTITLE0=Corli mi kola
TTITLE1=Rameno 
TTITLE2=Dealer 
TTITLE3=Mama ma rymu
TTITLE4=Vcera jsem se vdala
TTITLE5=Felicie
TTITLE6=Vinetou
TTITLE7=Zuby
TTITLE8=Dziny
TTITLE9=Ty jsi syn
TTITLE10=Na proti maj safe
TTITLE11=Drou fest
TTITLE12=Jako Antonin Dvorak
TTITLE13=Zrady 
TTITLE14=A kluci jdou
TTITLE15=Cerstvy syr
TTITLE16=Gigolo
TTITLE17=V samosce make up
TTITLE18=Tata
TTITLE19=Najem zvedej
EXTD=
EXTT0=
EXTT1=
EXTT2=
EXTT3=
EXTT4=
EXTT5=
EXTT6=
EXTT7=
EXTT8=
EXTT9=
EXTT10=
EXTT11=
EXTT12=
EXTT13=
EXTT14=
EXTT15=
EXTT16=
EXTT17=
EXTT18=
EXTT19=
PLAYORDER=
